<svg xmlns="http://www.w3.org/2000/svg" viewBox="0 0 343.15 174.55"><defs><style>.cls-1{fill:#040405;}</style></defs><g id="Layer_2" data-name="Layer 2"><g id="Layer_1-2" data-name="Layer 1"><path class="cls-1" d="M83.56,166.06c26.53-.22,53.49-11.23,66.13-33.69l4.84,2.87c-13.06,21.35-36.85,36.54-71,36.54-111.41,0-111.41-162.47,0-162.47,34.33,0,58.13,15.41,71.18,36.76l-5.26,3.31c-14.11-22.9-41.91-33.91-65.71-33.91C3.74,15.47,3.32,166.72,83.56,166.06Z"/><path class="cls-1" d="M184.22,6.67,206,0V167.82l-21.8,6.73Z"/><path class="cls-1" d="M289.45,56.64c22.46-.22,46.9,11.23,52.84,40.51,1.32,6.16.88,16.51.22,21.13h-84.1c1.1,25.32,20.7,43.59,41.61,43.59,12.11,0,27.52-8.14,34.13-17.83l4.4,3.08c-12.33,15-30.82,22.46-48.88,22.46-28.4,0-55.25-18.27-55.25-55.92C234.42,76.89,262.15,56.86,289.45,56.64Zm32.37,54.82C324.46,80,307.07,61.7,289.89,61.92c-16.95.22-33.9,18.72-31.48,49.54Zm-7.71-92.25L289.89,40.79h-8.8L297.16,17Z"/></g></g></svg>