<svg xmlns="http://www.w3.org/2000/svg" viewBox="0 0 176.19 25.25"><defs><style>.cls-1{fill:#282828;}</style></defs><g id="Layer_2" data-name="Layer 2"><g id="Layer_1-2" data-name="Layer 1"><path class="cls-1" d="M101,23.49a11.89,11.89,0,0,1-4.93,1.1c-5.2,0-7.35-3.72-7.35-6.78a7,7,0,0,1,7.27-7,11.41,11.41,0,0,1,4.73,1.14v2a9.55,9.55,0,0,0-4.77-1.4,5.13,5.13,0,0,0-5.22,5.18,5.09,5.09,0,0,0,5.4,5.21,8.57,8.57,0,0,0,2.94-.6V19.51H96.47v-1.7H101Z"/><path class="cls-1" d="M115.59,24.41h-1.93V11h1.93Z"/><path class="cls-1" d="M135.61,12.71h-5.24v3.72h5.24v1.74h-5.24v6.24h-1.93V11h7.17Z"/><path class="cls-1" d="M157.61,12.67h-4.69V24.41H151V12.67h-4.62V11h11.24Z"/><path class="cls-1" d="M175.66,13.93a4.45,4.45,0,0,0-3.15-1.4c-1.32,0-2.13.71-2.13,1.56,0,1.14.79,1.61,3.35,3.11a5.79,5.79,0,0,1,1.73,1.5,3.5,3.5,0,0,1,.73,2.23,3.61,3.61,0,0,1-3.9,3.66,6,6,0,0,1-3.63-1.24V20.91a4.73,4.73,0,0,0,3.63,2,1.93,1.93,0,0,0,2.09-1.78c0-1.12-1.14-2-1.77-2.32-2.13-1.28-2.74-1.66-3.34-2.41a3.13,3.13,0,0,1-.66-2c0-2,1.53-3.56,4-3.56a5.61,5.61,0,0,1,3.09.94Z"/><path class="cls-1" d="M9.92,23.88c3.14,0,6.34-1.33,7.84-4l.58.34a9.39,9.39,0,0,1-8.42,4.34c-13.23,0-13.23-19.28,0-19.28a9.42,9.42,0,0,1,8.44,4.36l-.62.39a9.3,9.3,0,0,0-7.8-4C.44,6,.39,24,9.92,23.88Z"/><path class="cls-1" d="M22.91,1l2.3-1V24.27l-2.3,1Z"/><path class="cls-1" d="M37,10.29c2.9,0,6,1.42,6.82,5.12a9.24,9.24,0,0,1,0,2.67H33a5.61,5.61,0,0,0,5.37,5.51,6,6,0,0,0,4.41-2.26l.57.39A8.26,8.26,0,0,1,37,24.56c-3.66,0-7.13-2.31-7.13-7.07A7,7,0,0,1,37,10.29Zm4.18,6.93c.34-4-1.91-6.29-4.13-6.26S32.66,13.32,33,17.22ZM40,5.56,36.89,8.28H35.77l2-3Z"/><rect class="cls-1" x="52.99" y="17.25" width="26.77" height="0.82"/></g></g></svg>